HIERARCHY
ROOT Pelvis
{
	OFFSET 0.000000 0.000000 0.000000
	CHANNELS 6 Xposition Yposition Zposition Xrotation Yrotation Zrotation
	JOINT LeftUpLeg_virtual
	{
		OFFSET 0.000000 0.000000 0.000000
		CHANNELS 3 Xrotation Yrotation Zrotation
		JOINT LeftUpLeg
		{
			OFFSET 18.735201 -5.666702 -4.541200
			CHANNELS 3 Xrotation Yrotation Zrotation
			JOINT LeftLeg
			{
				OFFSET -0.021200 -31.938179 0.493100
				CHANNELS 3 Xrotation Yrotation Zrotation
				JOINT LeftFoot
				{
					OFFSET 0.021200 -31.938179 -4.336299
					CHANNELS 3 Xrotation Yrotation Zrotation
					JOINT LeftToeBase
					{
						OFFSET 0.943001 -26.722000 15.023500
						CHANNELS 3 Xrotation Yrotation Zrotation
						End Site
						{
							OFFSET 0 0 0
						}
					}
				}
			}
		}
	}
	JOINT RightUpLeg_virtual
	{
		OFFSET 0.000000 0.000000 0.000000
		CHANNELS 3 Xrotation Yrotation Zrotation
		JOINT RightUpLeg
		{
			OFFSET -18.735201 -5.666702 -4.541200
			CHANNELS 3 Xrotation Yrotation Zrotation
			JOINT RightLeg
			{
				OFFSET 0.018946 -31.938133 0.493100
				CHANNELS 3 Xrotation Yrotation Zrotation
				JOINT RightFoot
				{
					OFFSET -0.018946 -31.938126 -4.336299
					CHANNELS 3 Xrotation Yrotation Zrotation
					JOINT RightToeBase
					{
						OFFSET -0.943001 -26.722004 15.023500
						CHANNELS 3 Xrotation Yrotation Zrotation
						End Site
						{
							OFFSET 0 0 0
						}
					}
				}
			}
		}
	}
	JOINT Hips_virtual
	{
		OFFSET 0.000000 0.000000 0.000000
		CHANNELS 3 Xrotation Yrotation Zrotation
		JOINT Hips
		{
			OFFSET -0.000000 -0.000000 -0.000000
			CHANNELS 3 Xrotation Yrotation Zrotation
			JOINT Spine
			{
				OFFSET 0.000000 10.199997 -0.299500
				CHANNELS 3 Xrotation Yrotation Zrotation
				JOINT Spine1
				{
					OFFSET 0.000000 11.900002 -1.516600
					CHANNELS 3 Xrotation Yrotation Zrotation
					JOINT Spine2
					{
						OFFSET 0.000000 13.600006 -2.842500
						CHANNELS 3 Xrotation Yrotation Zrotation
						JOINT Neck_virtual
						{
							OFFSET 0.000000 0.000000 0.000000
							CHANNELS 3 Xrotation Yrotation Zrotation
							JOINT Neck
							{
								OFFSET 0.000000 9.624100 -2.890100
								CHANNELS 3 Xrotation Yrotation Zrotation
								JOINT Head
								{
									OFFSET 0.000000 14.068802 -1.351900
									CHANNELS 3 Xrotation Yrotation Zrotation
									End Site
									{
										OFFSET 0 0 0
									}
								}
							}
						}
						JOINT LeftShoulder_virtual
						{
							OFFSET 0.000000 0.000000 0.000000
							CHANNELS 3 Xrotation Yrotation Zrotation
							JOINT LeftShoulder
							{
								OFFSET 15.263000 10.923401 -0.547700
								CHANNELS 3 Xrotation Yrotation Zrotation
								JOINT LeftArm
								{
									OFFSET 25.438599 -2.830597 -13.032500
									CHANNELS 3 Xrotation Yrotation Zrotation
									JOINT LeftForeArm
									{
										OFFSET 29.960503 0.000000 0.000000
										CHANNELS 3 Xrotation Yrotation Zrotation
										JOINT LeftHand
										{
											OFFSET 27.849251 0.000000 0.000000
											CHANNELS 3 Xrotation Yrotation Zrotation
											End Site
											{
												OFFSET 0 0 0
											}
										}
									}
								}
							}
						}
						JOINT RightShoulder_virtual
						{
							OFFSET 0.000000 0.000000 0.000000
							CHANNELS 3 Xrotation Yrotation Zrotation
							JOINT RightShoulder
							{
								OFFSET -15.263000 10.923401 -0.547700
								CHANNELS 3 Xrotation Yrotation Zrotation
								JOINT RightArm
								{
									OFFSET -25.438599 -2.830597 -13.032500
									CHANNELS 3 Xrotation Yrotation Zrotation
									JOINT RightForeArm
									{
										OFFSET -29.960503 0.000000 0.000000
										CHANNELS 3 Xrotation Yrotation Zrotation
										JOINT RightHand
										{
											OFFSET -27.849251 0.000000 0.000000
											CHANNELS 3 Xrotation Yrotation Zrotation
											End Site
											{
												OFFSET 0 0 0
											}
										}
									}
								}
							}
						}
					}
				}
			}
		}
	}
}
MOTION
Frames: 5
Frame Time: 0.03333333
-3.333425 87.256256 -0.788570 0.000000 0.000000 0.000000 3.748088 -43.587470 6.905936 -45.873036 -2.399641 21.972698 33.387993 -5.274007 -4.833970 -15.981312 -1.532142 -18.092432 0.000000 0.000000 0.000000 14.365556 -68.576718 6.974468 -28.669446 -23.433950 -27.258027 36.842621 9.671809 -0.812119 -15.412856 6.029294 15.657630 0.000000 0.000000 0.000000 -7.707698 -48.150617 0.787518 1.022862 -25.221530 -3.214206 6.236496 -10.048606 -3.184127 4.800026 -5.508962 -2.390880 0.000000 0.000000 0.000000 -1.582955 -5.438875 -0.050869 -1.396168 -0.348238 0.833982 0.000000 0.000000 0.000000 6.857833 -4.930475 0.824509 4.409399 -8.415999 8.523764 -30.695403 14.718491 -12.479927 -2.465164 -2.138553 1.364473 0.000000 0.000000 0.000000 0.680482 -6.274146 -1.780261 1.330053 -9.776550 -13.484373 -25.742490 42.576124 29.914559 -173.025917 59.209114 172.691061 0.000000 0.000000 0.000000 
-3.370031 87.253365 -0.799520 0.000000 0.000000 0.000000 3.759340 -43.599843 6.918447 -45.854492 -2.406680 21.974679 33.402159 -5.294631 -4.838632 -15.972524 -1.549266 -18.115610 0.000000 0.000000 0.000000 14.347313 -68.493649 6.925851 -28.624805 -23.409992 -27.263030 36.855318 9.630041 -0.799789 -15.399918 5.983144 15.649251 0.000000 0.000000 0.000000 -7.718820 -48.113130 0.784709 0.983552 -25.110466 -3.251128 6.252800 -10.081547 -3.176843 4.806620 -5.525725 -2.383596 0.000000 0.000000 0.000000 -1.597250 -5.466859 -0.035361 -1.404003 -0.350767 0.837540 0.000000 0.000000 0.000000 6.839409 -4.942132 0.833615 4.377680 -8.359537 8.507202 -30.697353 14.663091 -12.480436 -2.457338 -2.187103 1.361767 0.000000 0.000000 0.000000 0.674642 -6.285286 -1.754744 1.323626 -9.803961 -13.386772 -25.630259 42.374319 29.924684 -172.999088 59.263079 172.677646 0.000000 0.000000 0.000000 
-3.407389 87.248444 -0.812771 0.000000 0.000000 0.000000 3.769756 -43.609405 6.929268 -45.834490 -2.412808 21.975222 33.413094 -5.316101 -4.843936 -15.965480 -1.566772 -18.140293 0.000000 0.000000 0.000000 14.332969 -68.412288 6.881307 -28.579569 -23.387039 -27.267293 36.866786 9.587488 -0.788013 -15.387709 5.936523 15.639333 0.000000 0.000000 0.000000 -7.733155 -48.078549 0.778941 0.931811 -25.006702 -3.300591 6.268413 -10.114798 -3.169697 4.812268 -5.542516 -2.376181 0.000000 0.000000 0.000000 -1.611554 -5.494797 -0.019991 -1.411711 -0.353308 0.840848 0.000000 0.000000 0.000000 6.821500 -4.955109 0.843329 4.347263 -8.309939 8.492451 -30.700071 14.602794 -12.480683 -2.449254 -2.240214 1.359179 0.000000 0.000000 0.000000 0.668384 -6.296245 -1.728841 1.317331 -9.830450 -13.286825 -25.525593 42.170039 29.938601 -172.970538 59.319305 172.661267 0.000000 0.000000 0.000000 
-3.443017 87.243286 -0.825359 0.000000 0.000000 0.000000 3.778724 -43.621625 6.938860 -45.816434 -2.419405 21.974921 33.420785 -5.338947 -4.850241 -15.961266 -1.584891 -18.166939 0.000000 0.000000 0.000000 14.322242 -68.333126 6.841016 -28.534609 -23.365271 -27.270772 36.876710 9.545420 -0.776342 -15.376764 5.890284 15.629416 0.000000 0.000000 0.000000 -7.746406 -48.046143 0.773567 0.884692 -24.909529 -3.347939 6.285885 -10.147823 -3.162087 4.818513 -5.559103 -2.368395 0.000000 0.000000 0.000000 -1.626702 -5.522762 -0.003029 -1.419651 -0.355962 0.844930 0.000000 0.000000 0.000000 6.804623 -4.968866 0.854096 4.318702 -8.265229 8.481979 -30.702622 14.541083 -12.474283 -2.440243 -2.292161 1.358905 0.000000 0.000000 0.000000 0.661921 -6.307056 -1.701697 1.311776 -9.856334 -13.180873 -25.423646 41.964727 29.962930 -172.938764 59.374998 172.643727 0.000000 0.000000 0.000000 
-3.479301 87.239594 -0.842573 0.000000 0.000000 0.000000 3.789092 -43.626061 6.953199 -45.799311 -2.425638 21.979899 33.433691 -5.361569 -4.855139 -15.952612 -1.603979 -18.191808 0.000000 0.000000 0.000000 14.315801 -68.254736 6.803782 -28.487700 -23.344321 -27.274378 36.888294 9.503920 -0.765546 -15.364932 5.845098 15.618720 0.000000 0.000000 0.000000 -7.759191 -48.019140 0.768001 0.838565 -24.824346 -3.395543 6.304662 -10.181764 -3.153374 4.825005 -5.576076 -2.359986 0.000000 0.000000 0.000000 -1.643924 -5.551564 0.016056 -1.428508 -0.359279 0.850099 0.000000 0.000000 0.000000 6.788334 -4.983675 0.865736 4.291667 -8.226830 8.475156 -30.707373 14.479320 -12.463057 -2.431560 -2.342308 1.359919 0.000000 0.000000 0.000000 0.654915 -6.317815 -1.673190 1.306607 -9.882006 -13.068627 -25.325535 41.758206 29.997788 -172.903001 59.431785 172.623988 0.000000 0.000000 0.000000 
